<svg id="Layer_1" data-name="Layer 1" xmlns="http://www.w3.org/2000/svg" viewBox="0 0 458.29 429.34"><defs><style>.cls-1,.cls-6{fill:#006be0;}.cls-2,.cls-4,.cls-7{fill:#fff;}.cls-2{opacity:0.7;isolation:isolate;}.cls-3,.cls-5{fill:#263238;}.cls-10,.cls-11,.cls-12,.cls-13,.cls-14,.cls-15,.cls-5,.cls-6,.cls-7,.cls-8,.cls-9{stroke:#263238;stroke-linecap:round;stroke-linejoin:round;}.cls-13,.cls-14,.cls-15,.cls-8,.cls-9{fill:none;}.cls-9{stroke-width:2px;}.cls-10{fill:#92e3a9;}.cls-11{fill:#d6d6d6;}.cls-12{fill:#e293d1;}.cls-13{stroke-width:5px;}.cls-14{stroke-width:14px;}.cls-15{stroke-width:7px;}</style></defs><title>illustration</title><g id="Background_Simple" data-name="Background Simple"><path class="cls-1" d="M409.54,128.48s-16.87-67.66-119-110.33S97,15,76.21,65s1,77-12.9,119.7S-22,281.48,6.82,347.06s163.68,84.31,272.81,70.78S474,254.42,409.54,128.48Z" transform="translate(-0.03 0)"/><path class="cls-2" d="M409.54,128.48s-16.87-67.66-119-110.33S97,15,76.21,65s1,77-12.9,119.7S-22,281.48,6.82,347.06s163.68,84.31,272.81,70.78S474,254.42,409.54,128.48Z" transform="translate(-0.03 0)"/></g><g id="Speech_Bubble" data-name="Speech Bubble"><path class="cls-3" d="M143.82,74.58h-83a10,10,0,0,0-10,10v31a10,10,0,0,0,10,10h82.5l10.5,14v-55A10,10,0,0,0,143.82,74.58Z" transform="translate(-0.03 0)"/><path class="cls-4" d="M75.85,94v12.13H72.48v-4.87H68.36v4.87H65V94h3.37v4.56h4.12V94Z" transform="translate(-0.03 0)"/><path class="cls-4" d="M78,95.11a1.6,1.6,0,0,1-.54-1.23A1.66,1.66,0,0,1,78,92.62a2.33,2.33,0,0,1,2.86,0,1.66,1.66,0,0,1,.54,1.26,1.6,1.6,0,0,1-.54,1.23,2.33,2.33,0,0,1-2.86,0Zm3.11,1.39v9.65H77.78V96.5Z" transform="translate(-0.03 0)"/><path class="cls-4" d="M92.06,103.28v2.87H90.6q-3.7,0-3.7-3.67V99.3H85.71V96.5H86.9V94.16h3.39V96.5H92v2.8H90.29v3.24a.74.74,0,0,0,.18.56.84.84,0,0,0,.61.18Z" transform="translate(-0.03 0)"/><path class="cls-4" d="M102.58,97.52a4.38,4.38,0,0,1,1,3v5.63h-3.37V101a1.86,1.86,0,0,0-.43-1.3,1.5,1.5,0,0,0-1.15-.47,1.54,1.54,0,0,0-1.19.47A1.86,1.86,0,0,0,97,101v5.18H93.61V93.42H97v4.45a3.38,3.38,0,0,1,1.21-1.06,3.73,3.73,0,0,1,1.77-.4A3.31,3.31,0,0,1,102.58,97.52Z" transform="translate(-0.03 0)"/><path class="cls-4" d="M114.58,102H108.2a1.75,1.75,0,0,0,.44,1.18,1.34,1.34,0,0,0,1,.39,1.23,1.23,0,0,0,1.2-.76h3.6a4.18,4.18,0,0,1-.87,1.78,4.48,4.48,0,0,1-1.63,1.23,5.09,5.09,0,0,1-2.16.45,5.24,5.24,0,0,1-2.54-.6,4.36,4.36,0,0,1-1.74-1.72,5.85,5.85,0,0,1,0-5.26A4.25,4.25,0,0,1,107.21,97a5.78,5.78,0,0,1,5.09,0A4.28,4.28,0,0,1,114,98.64a5.54,5.54,0,0,1,.56,3.36Zm-3.39-1.63a1.17,1.17,0,0,0-.41-1,1.68,1.68,0,0,0-2,0,1.63,1.63,0,0,0-.51,1Z" transform="translate(-0.03 0)"/><path class="cls-4" d="M120.76,96.89a3.36,3.36,0,0,1,1.74-.48V100h-1a2.54,2.54,0,0,0-1.63.43,1.79,1.79,0,0,0-.53,1.49v4.22H116V96.5h3.38v1.7A4.27,4.27,0,0,1,120.76,96.89Z" transform="translate(-0.03 0)"/><path class="cls-4" d="M132.88,102h-6.39a1.8,1.8,0,0,0,.44,1.18,1.34,1.34,0,0,0,1,.39,1.25,1.25,0,0,0,1.21-.76h3.59a4.18,4.18,0,0,1-.87,1.78,4.53,4.53,0,0,1-1.62,1.23,5.17,5.17,0,0,1-2.17.45,5.27,5.27,0,0,1-2.54-.6,4.36,4.36,0,0,1-1.74-1.72,5.85,5.85,0,0,1,0-5.26A4.31,4.31,0,0,1,125.5,97a5.78,5.78,0,0,1,5.09,0,4.22,4.22,0,0,1,1.72,1.68,5.15,5.15,0,0,1,.62,2.57A6.84,6.84,0,0,1,132.88,102Zm-3.39-1.63a1.18,1.18,0,0,0-.42-1,1.5,1.5,0,0,0-1-.36,1.47,1.47,0,0,0-1,.34,1.58,1.58,0,0,0-.52,1Z" transform="translate(-0.03 0)"/><path class="cls-4" d="M135.55,105.8a1.63,1.63,0,0,1-.54-1.25,1.65,1.65,0,0,1,.54-1.26,2.29,2.29,0,0,1,2.86,0,1.65,1.65,0,0,1,.54,1.26,1.62,1.62,0,0,1-.54,1.24,2,2,0,0,1-1.42.5A2.09,2.09,0,0,1,135.55,105.8Zm3.26-12.4-.39,8.21h-2.88l-.39-8.21Z" transform="translate(-0.03 0)"/></g><g id="Screen"><path class="cls-5" d="M283.82,75.58s-3.7-1.31-4.54,2,4.06,4.54,4.66,4.54,1.55-.83.95-2.74S283.82,75.58,283.82,75.58Z" transform="translate(-0.03 0)"/><path class="cls-5" d="M304.82,67.46s-.36,4.78-.36,6.69,2,2.63,3,2.63,1.44,2.27.84,4.66-2.63,3.82-7.53,3.82-7.88-2.15-8-3.7,1.07-8.25,3.11-10S304.82,67.46,304.82,67.46Z" transform="translate(-0.03 0)"/><path class="cls-6" d="M286.93,82.15V84a1.53,1.53,0,0,0,.89,1.38,8.67,8.67,0,0,0,2.7.65,12.86,12.86,0,0,0,5.42-1.2,1.3,1.3,0,0,0,.79-1.2V81.7A.73.73,0,0,0,296,81a.82.82,0,0,0-.27.06l-.39.2S289.44,82,286.93,82.15Z" transform="translate(-0.03 0)"/><path class="cls-7" d="M284.31,66.5a50.38,50.38,0,0,0-1.32,8c-.36,4.42,0,8.48,1.79,8.6a6.46,6.46,0,0,0,3.47-1s4.18.48,5.61-.23l1.44-.72,1.07-7s.12-10.87-1.91-11.59S284.31,66.5,284.31,66.5Z" transform="translate(-0.03 0)"/><path class="cls-8" d="M287.53,71.4l-.95,2.51s-1.92.48-1.68,1.43,1.51.81,1.51.81" transform="translate(-0.03 0)"/><path class="cls-3" d="M290.6,72.49c-.19.52-.58.86-.85.76s-.35-.61-.15-1.14.58-.87.86-.76S290.82,72,290.6,72.49Z" transform="translate(-0.03 0)"/><path class="cls-3" d="M286.1,71.28c-.2.53-.58.87-.86.77s-.34-.62-.15-1.14.58-.87.86-.77S286.29,70.76,286.1,71.28Z" transform="translate(-0.03 0)"/><path class="cls-8" d="M289.68,69.13s2.27-.6,2.51,1.56" transform="translate(-0.03 0)"/><path class="cls-8" d="M286.7,68.53s-2-.71-2.63,1" transform="translate(-0.03 0)"/><line class="cls-8" x1="288.22" y1="82.15" x2="291.44" y2="80.84"/><path class="cls-5" d="M285.82,61s-3.82-4.54-6.69-1.2-2,8.37,3.11,8.61,10.87-4.78,10.87-4.78-.6,6.57.83,8.84,2.51,3.82,2.51,3.82,2,1.31,5.38-1.31,4.18-9,1.79-13.27-6.57-6.69-11.59-5S285.82,61,285.82,61Z" transform="translate(-0.03 0)"/><path class="cls-7" d="M294.1,76.18s4.3-3.94,4.3-1.67-2,4.3-3.58,3.82" transform="translate(-0.03 0)"/><path class="cls-8" d="M284.9,78a3.33,3.33,0,0,0,3.88,0" transform="translate(-0.03 0)"/><circle class="cls-8" cx="292.35" cy="71.72" r="20.19"/><circle class="cls-8" cx="424.88" cy="215.19" r="21.34"/><path class="cls-6" d="M432.2,221.48a7.1,7.1,0,1,1-7.1-7.1,7.1,7.1,0,0,1,7.1,7.1Z" transform="translate(-0.03 0)"/><path class="cls-7" d="M435.25,226.21a13,13,0,1,0-20.29,0Z" transform="translate(-0.03 0)"/><path class="cls-6" d="M430.17,222.53H419.71a4.66,4.66,0,0,1-4.66-4.66h0a4.65,4.65,0,0,1,4.64-4.66h10.48a4.65,4.65,0,0,1,4.66,4.64v0h0a4.66,4.66,0,0,1-4.66,4.66Z" transform="translate(-0.03 0)"/><path class="cls-9" d="M417.19,217.49a3.16,3.16,0,0,1,5.89-.16" transform="translate(-0.03 0)"/><path class="cls-9" d="M427,217.49a3.16,3.16,0,0,1,5.89-.16" transform="translate(-0.03 0)"/><path class="cls-7" d="M423.39,219.65a1.79,1.79,0,0,0,3.56,0Z" transform="translate(-0.03 0)"/><path class="cls-5" d="M441.91,220.39h0a1.36,1.36,0,0,1-1.36-1.36v-3.09a1.36,1.36,0,0,1,1.36-1.36h0a1.36,1.36,0,0,1,1.36,1.36V219a1.36,1.36,0,0,1-1.33,1.39Z" transform="translate(-0.03 0)"/><path class="cls-5" d="M407.93,220.39h0a1.36,1.36,0,0,1-1.36-1.36v-3.09a1.36,1.36,0,0,1,1.36-1.36h0a1.36,1.36,0,0,1,1.36,1.36V219a1.36,1.36,0,0,1-1.33,1.39Z" transform="translate(-0.03 0)"/><path class="cls-3" d="M410.44,216.13A1.43,1.43,0,0,1,409,214.7v-2.24a12.14,12.14,0,0,1,2.08-6.81,1.43,1.43,0,1,1,2.49,1.41,1.27,1.27,0,0,1-.13.19,9.29,9.29,0,0,0-1.59,5.21v2.24A1.43,1.43,0,0,1,410.44,216.13Z" transform="translate(-0.03 0)"/><path class="cls-3" d="M438.06,207.17a.7.7,0,0,1-.59-.32,10,10,0,0,0-8.33-4.43H421.2a10,10,0,0,0-8.33,4.43.72.72,0,0,1-1,.19.7.7,0,0,1-.2-1v0a11.44,11.44,0,0,1,9.51-5.06h7.94a11.47,11.47,0,0,1,9.52,5.07.72.72,0,0,1-.18,1h0A.69.69,0,0,1,438.06,207.17Z" transform="translate(-0.03 0)"/><path class="cls-3" d="M439.9,216.13a1.43,1.43,0,0,1-1.43-1.43v-2.24a9.29,9.29,0,0,0-1.59-5.21,1.43,1.43,0,1,1,2.27-1.74l.1.15a12,12,0,0,1,2.07,6.8v2.24A1.43,1.43,0,0,1,439.9,216.13Z" transform="translate(-0.03 0)"/><path class="cls-7" d="M410.62,222.41h0a2.82,2.82,0,0,1-2.82-2.82h0v-4.48a2.82,2.82,0,0,1,2.82-2.82h0a2.82,2.82,0,0,1,2.82,2.82h0v4.48a2.82,2.82,0,0,1-2.82,2.82Z" transform="translate(-0.03 0)"/><rect class="cls-10" x="410.3" y="212.29" width="0.58" height="10.12"/><path class="cls-7" d="M439.38,212.29h0a2.82,2.82,0,0,1,2.82,2.82v4.48a2.82,2.82,0,0,1-2.82,2.82h0a2.82,2.82,0,0,1-2.82-2.82v-4.48A2.82,2.82,0,0,1,439.38,212.29Z" transform="translate(-0.03 0)"/><rect class="cls-10" x="439.06" y="212.29" width="0.58" height="10.12"/><path class="cls-6" d="M425.15,211.37h0a6,6,0,0,0,5-2.72l1.23-1.91a13,13,0,0,0-12.72.1l1.84,2.3A6,6,0,0,0,425.15,211.37Z" transform="translate(-0.03 0)"/><circle class="cls-3" cx="425.22" cy="223.47" r="0.21"/><path class="cls-3" d="M425.46,224.2a.22.22,0,0,0-.21-.2.2.2,0,0,0-.21.19h0a.21.21,0,0,0,.42,0Z" transform="translate(-0.03 0)"/><path class="cls-3" d="M424.63,224.09a.21.21,0,0,0,.14-.26.23.23,0,0,0-.27-.14.21.21,0,0,0-.14.26A.23.23,0,0,0,424.63,224.09Z" transform="translate(-0.03 0)"/><path class="cls-3" d="M425.94,224.09a.21.21,0,0,0,.14-.26.23.23,0,0,0-.27-.14.19.19,0,0,0-.13.25h0A.21.21,0,0,0,425.94,224.09Z" transform="translate(-0.03 0)"/><polygon class="cls-11" points="398.67 106.15 319.1 106.15 319.1 70.7 319.1 61.3 328.51 70.7 398.67 70.7 398.67 106.15"/><polygon class="cls-11" points="398.67 157.5 319.1 157.5 319.1 122.06 319.1 112.66 328.51 122.06 398.67 122.06 398.67 157.5"/><line class="cls-8" x1="372.23" y1="82.9" x2="390.96" y2="82.9"/><line class="cls-8" x1="346.02" y1="82.9" x2="367.42" y2="82.9"/><line class="cls-8" x1="329.97" y1="82.9" x2="342.27" y2="82.9"/><line class="cls-8" x1="363.67" y1="88.79" x2="390.96" y2="88.79"/><line class="cls-8" x1="329.97" y1="88.79" x2="358.86" y2="88.79"/><line class="cls-8" x1="385.61" y1="94.67" x2="390.96" y2="94.67"/><line class="cls-8" x1="355.65" y1="94.67" x2="381.33" y2="94.67"/><line class="cls-8" x1="329.97" y1="94.67" x2="351.37" y2="94.67"/><line class="cls-8" x1="372.23" y1="132.65" x2="390.96" y2="132.65"/><line class="cls-8" x1="346.02" y1="132.65" x2="367.42" y2="132.65"/><line class="cls-8" x1="329.97" y1="132.65" x2="342.27" y2="132.65"/><line class="cls-8" x1="363.67" y1="138.54" x2="390.96" y2="138.54"/><line class="cls-8" x1="329.97" y1="138.54" x2="358.86" y2="138.54"/><line class="cls-8" x1="385.61" y1="144.42" x2="390.96" y2="144.42"/><line class="cls-8" x1="355.65" y1="144.42" x2="381.33" y2="144.42"/><line class="cls-8" x1="329.97" y1="144.42" x2="351.37" y2="144.42"/><polygon class="cls-12" points="319.1 301.91 398.67 301.91 398.67 216.18 398.67 206.78 389.26 216.18 319.1 216.18 319.1 301.91"/><line class="cls-8" x1="372.23" y1="227.88" x2="390.96" y2="227.88"/><line class="cls-8" x1="346.02" y1="227.88" x2="367.42" y2="227.88"/><line class="cls-8" x1="329.97" y1="227.88" x2="342.27" y2="227.88"/><line class="cls-8" x1="363.67" y1="233.76" x2="390.96" y2="233.76"/><line class="cls-8" x1="329.97" y1="233.76" x2="358.86" y2="233.76"/><line class="cls-8" x1="385.61" y1="239.65" x2="390.96" y2="239.65"/><line class="cls-8" x1="355.65" y1="239.65" x2="381.33" y2="239.65"/><line class="cls-8" x1="329.97" y1="239.65" x2="351.37" y2="239.65"/><line class="cls-8" x1="372.23" y1="244.46" x2="390.96" y2="244.46"/><line class="cls-8" x1="346.02" y1="244.46" x2="367.42" y2="244.46"/><line class="cls-8" x1="329.97" y1="244.46" x2="342.27" y2="244.46"/><line class="cls-8" x1="363.67" y1="250.35" x2="390.96" y2="250.35"/><line class="cls-8" x1="329.97" y1="250.35" x2="358.86" y2="250.35"/><line class="cls-8" x1="385.61" y1="256.23" x2="390.96" y2="256.23"/><line class="cls-8" x1="355.65" y1="256.23" x2="381.33" y2="256.23"/><line class="cls-8" x1="329.97" y1="256.23" x2="351.37" y2="256.23"/><line class="cls-8" x1="372.23" y1="261.05" x2="390.96" y2="261.05"/><line class="cls-8" x1="346.02" y1="261.05" x2="367.42" y2="261.05"/><line class="cls-8" x1="329.97" y1="261.05" x2="342.27" y2="261.05"/><line class="cls-8" x1="363.67" y1="266.93" x2="390.96" y2="266.93"/><line class="cls-8" x1="329.97" y1="266.93" x2="358.86" y2="266.93"/><line class="cls-8" x1="385.61" y1="272.82" x2="390.96" y2="272.82"/><line class="cls-8" x1="355.65" y1="272.82" x2="381.33" y2="272.82"/><line class="cls-8" x1="329.97" y1="272.82" x2="351.37" y2="272.82"/><line class="cls-8" x1="372.23" y1="277.63" x2="390.96" y2="277.63"/><line class="cls-8" x1="346.02" y1="277.63" x2="367.42" y2="277.63"/><line class="cls-8" x1="329.97" y1="277.63" x2="342.27" y2="277.63"/><line class="cls-8" x1="363.67" y1="283.51" x2="390.96" y2="283.51"/><line class="cls-8" x1="329.97" y1="283.51" x2="358.86" y2="283.51"/><line class="cls-8" x1="385.61" y1="289.4" x2="390.96" y2="289.4"/><line class="cls-8" x1="355.65" y1="289.4" x2="381.33" y2="289.4"/><line class="cls-8" x1="329.97" y1="289.4" x2="351.37" y2="289.4"/><circle class="cls-8" cx="424.89" cy="328.24" r="21.34"/><path class="cls-6" d="M432.2,334.53a7.1,7.1,0,1,1-7.11-7.09h0A7.1,7.1,0,0,1,432.2,334.53Z" transform="translate(-0.03 0)"/><path class="cls-7" d="M435.25,339.26a13,13,0,1,0-20.29,0Z" transform="translate(-0.03 0)"/><path class="cls-6" d="M430.17,335.58H419.71a4.66,4.66,0,0,1-4.66-4.66h0a4.66,4.66,0,0,1,4.66-4.66h10.46a4.66,4.66,0,0,1,4.66,4.66h0a4.66,4.66,0,0,1-4.66,4.66Z" transform="translate(-0.03 0)"/><path class="cls-9" d="M417.19,330.54a3.16,3.16,0,0,1,5.89-.16" transform="translate(-0.03 0)"/><path class="cls-9" d="M427,330.54a3.16,3.16,0,0,1,5.89-.16" transform="translate(-0.03 0)"/><path class="cls-7" d="M423.39,332.7a1.79,1.79,0,0,0,3.56,0Z" transform="translate(-0.03 0)"/><path class="cls-5" d="M441.91,333.44h0a1.36,1.36,0,0,1-1.36-1.36V329a1.36,1.36,0,0,1,1.36-1.36h0a1.36,1.36,0,0,1,1.36,1.36v3.09A1.36,1.36,0,0,1,441.91,333.44Z" transform="translate(-0.03 0)"/><path class="cls-5" d="M407.93,333.44h0a1.36,1.36,0,0,1-1.36-1.36V329a1.36,1.36,0,0,1,1.36-1.36h0a1.36,1.36,0,0,1,1.36,1.36v3.09A1.36,1.36,0,0,1,407.93,333.44Z" transform="translate(-0.03 0)"/><path class="cls-3" d="M410.44,329.19a1.43,1.43,0,0,1-1.42-1.43v-2.25a12.14,12.14,0,0,1,2.08-6.81,1.43,1.43,0,0,1,2.36,1.6,9.29,9.29,0,0,0-1.59,5.21v2.25A1.43,1.43,0,0,1,410.44,329.19Z" transform="translate(-0.03 0)"/><path class="cls-3" d="M438.06,320.22a.72.72,0,0,1-.59-.31,10,10,0,0,0-8.33-4.44H421.2a10,10,0,0,0-8.33,4.43.71.71,0,0,1-1.18-.8A11.45,11.45,0,0,1,421.2,314h7.94a11.47,11.47,0,0,1,9.52,5.07.72.72,0,0,1-.18,1h0A.71.71,0,0,1,438.06,320.22Z" transform="translate(-0.03 0)"/><path class="cls-3" d="M439.9,329.19a1.43,1.43,0,0,1-1.43-1.43v-2.25a9.29,9.29,0,0,0-1.59-5.2,1.43,1.43,0,0,1,2.34-1.64l0,0a12,12,0,0,1,2.07,6.8v2.25A1.43,1.43,0,0,1,439.9,329.19Z" transform="translate(-0.03 0)"/><path class="cls-7" d="M410.62,335.47h0a2.82,2.82,0,0,1-2.82-2.82h0v-4.49a2.82,2.82,0,0,1,2.82-2.82h0a2.82,2.82,0,0,1,2.82,2.82h0v4.49A2.83,2.83,0,0,1,410.62,335.47Z" transform="translate(-0.03 0)"/><rect class="cls-10" x="410.3" y="325.34" width="0.58" height="10.12"/><path class="cls-7" d="M439.38,325.34h0a2.82,2.82,0,0,1,2.82,2.82v4.48a2.82,2.82,0,0,1-2.82,2.82h0a2.82,2.82,0,0,1-2.82-2.82v-4.48A2.82,2.82,0,0,1,439.38,325.34Z" transform="translate(-0.03 0)"/><rect class="cls-10" x="439.06" y="325.34" width="0.58" height="10.12"/><path class="cls-6" d="M425.15,324.42h0a6,6,0,0,0,5-2.72l1.23-1.9a13,13,0,0,0-12.72.09l1.84,2.3A6,6,0,0,0,425.15,324.42Z" transform="translate(-0.03 0)"/><circle class="cls-3" cx="425.22" cy="336.52" r="0.21"/><circle class="cls-3" cx="425.22" cy="337.26" r="0.21"/><path class="cls-3" d="M424.63,337.14a.21.21,0,0,0,.14-.26.23.23,0,0,0-.27-.14.22.22,0,0,0-.14.26.2.2,0,0,0,.26.14Z" transform="translate(-0.03 0)"/><path class="cls-3" d="M425.94,337.14a.21.21,0,0,0,.14-.26.23.23,0,0,0-.27-.14.19.19,0,0,0-.13.25h0a.21.21,0,0,0,.24.15Z" transform="translate(-0.03 0)"/><polygon class="cls-12" points="319.1 379.83 398.67 379.83 398.67 329.23 398.67 319.83 389.26 329.23 319.1 329.23 319.1 379.83"/><line class="cls-8" x1="372.23" y1="340.93" x2="390.96" y2="340.93"/><line class="cls-8" x1="346.02" y1="340.93" x2="367.42" y2="340.93"/><line class="cls-8" x1="329.97" y1="340.93" x2="342.27" y2="340.93"/><line class="cls-8" x1="363.67" y1="346.82" x2="390.96" y2="346.82"/><line class="cls-8" x1="329.97" y1="346.82" x2="358.86" y2="346.82"/><line class="cls-8" x1="385.61" y1="352.7" x2="390.96" y2="352.7"/><line class="cls-8" x1="355.65" y1="352.7" x2="381.33" y2="352.7"/><line class="cls-8" x1="329.97" y1="352.7" x2="351.37" y2="352.7"/><line class="cls-8" x1="372.23" y1="357.52" x2="390.96" y2="357.52"/><line class="cls-8" x1="346.02" y1="357.52" x2="367.42" y2="357.52"/><line class="cls-8" x1="329.97" y1="357.52" x2="342.27" y2="357.52"/><line class="cls-8" x1="363.67" y1="363.4" x2="390.96" y2="363.4"/><line class="cls-8" x1="329.97" y1="363.4" x2="358.86" y2="363.4"/><line class="cls-8" x1="385.61" y1="369.28" x2="390.96" y2="369.28"/><line class="cls-8" x1="355.65" y1="369.28" x2="381.33" y2="369.28"/><line class="cls-8" x1="329.97" y1="369.28" x2="351.37" y2="369.28"/><path class="cls-9" d="M438.82,23.58H397.54a10,10,0,0,1-9.81,8.14h-59.1a10,10,0,0,1-9.81-8.14H277.59a13,13,0,0,0-13,13v349a13,13,0,0,0,13,13H438.82a13,13,0,0,0,13-13h0v-349a13,13,0,0,0-13-13Z" transform="translate(-0.03 0)"/><path class="cls-9" d="M451.82,47.13V36.59a13,13,0,0,0-13-13H397.54a10,10,0,0,1-9.81,8.14h-59.1a10,10,0,0,1-9.81-8.15H277.59a13,13,0,0,0-13,13V47.13Z" transform="translate(-0.03 0)"/><path class="cls-3" d="M281.74,33c0,2.56-2.88,3.48-2.89,5.43v.13h2.79v.87h-3.72V38.7c0-2.7,2.9-3.28,2.9-5.7,0-.88-.29-1.34-1-1.34s-1,.5-1,1.25v.75h-.88V33c0-1.3.59-2.16,1.9-2.16S281.74,31.7,281.74,33Z" transform="translate(-0.03 0)"/><path class="cls-3" d="M286.38,33v.22a1.68,1.68,0,0,1-1,1.74,1.68,1.68,0,0,1,1,1.76v.65c0,1.3-.61,2.15-1.91,2.15s-1.91-.85-1.91-2.15v-.58h.89v.64c0,.77.31,1.23,1,1.23s1-.45,1-1.31V36.7c0-.84-.36-1.24-1.07-1.27h-.56v-.84h.56a1,1,0,0,0,1-1,.55.55,0,0,0,0-.18V33c0-.87-.31-1.32-1-1.32s-1,.47-1,1.24v.44h-.89V33c0-1.3.61-2.14,1.91-2.14A1.88,1.88,0,0,1,286.38,33Z" transform="translate(-0.03 0)"/><path class="cls-3" d="M288.21,33.63v1.18h-.91V33.63Zm0,4.62v1.18h-.91V38.25Z" transform="translate(-0.03 0)"/><path class="cls-3" d="M290.13,34.39a1.38,1.38,0,0,1,1.26-.7c1.09,0,1.58.8,1.58,2v1.66c0,1.3-.62,2.15-1.92,2.15s-1.9-.85-1.9-2.15v-.57H290v.63c0,.77.32,1.23,1,1.23s1-.46,1-1.23V35.78c0-.77-.31-1.23-1-1.23a.92.92,0,0,0-1,.82v.28h-.89l.23-4.71h3.35v.85h-2.5Z" transform="translate(-0.03 0)"/><path class="cls-3" d="M297.68,33v.15h-.86v-.22c0-.76-.32-1.21-1-1.21s-1,.46-1,1.37V35a1.35,1.35,0,0,1,1.37-.91c1.09,0,1.58.78,1.58,2v1.28c0,1.3-.64,2.15-1.94,2.15a1.92,1.92,0,0,1-2-2.16V33c0-1.35.6-2.19,1.95-2.19S297.68,31.68,297.68,33Zm-2.92,3.17v1.27c0,.77.32,1.23,1,1.23s1-.46,1-1.23V36.15c0-.76-.33-1.22-1-1.22s-1,.46-1,1.22Z" transform="translate(-0.03 0)"/><rect class="cls-3" x="400.06" y="33.35" width="2.4" height="5.99"/><rect class="cls-3" x="403.26" y="32.15" width="2.4" height="7.19"/><rect class="cls-3" x="406.45" y="31.3" width="2.4" height="8.04"/><rect class="cls-3" x="409.65" y="29.81" width="2.4" height="9.53"/><path class="cls-3" d="M441.73,39.17H427.35V30.39h14.38Zm-13.58-.79h12.78V31.19H428.15Z" transform="translate(-0.03 0)"/><rect class="cls-3" x="429.32" y="32.06" width="7.59" height="5.45"/><rect class="cls-3" x="441.2" y="33.75" width="1.81" height="2.07"/><path class="cls-3" d="M422.08,37.26a.52.52,0,0,1-.27-.07c-2.93-1.74-4.86-.13-4.94-.06a.55.55,0,0,1-.76,0,.54.54,0,0,1,0-.77l.06,0c.1-.09,2.58-2.21,6.2-.06a.54.54,0,0,1-.28,1Z" transform="translate(-0.03 0)"/><path class="cls-3" d="M423.16,35.46a.5.5,0,0,1-.27-.08c-4.23-2.51-7.08-.08-7.11-.06a.53.53,0,1,1-.7-.8s3.46-3,8.36-.06a.55.55,0,0,1,.18.74A.54.54,0,0,1,423.16,35.46Z" transform="translate(-0.03 0)"/><path class="cls-3" d="M424.15,33.37a.54.54,0,0,1-.28-.08c-5.36-3.18-8.92-.18-9.07,0a.54.54,0,0,1-.76-.11.53.53,0,0,1,0-.7c.05,0,4.28-3.66,10.33-.06a.54.54,0,0,1,.19.74h0A.54.54,0,0,1,424.15,33.37Z" transform="translate(-0.03 0)"/><path class="cls-3" d="M420.46,38.16a1.35,1.35,0,1,1-1.36-1.34h0A1.34,1.34,0,0,1,420.46,38.16Z" transform="translate(-0.03 0)"/></g><g id="Table"><line class="cls-8" x1="436.79" y1="414.51" x2="457.79" y2="414.51"/><line class="cls-8" x1="40.79" y1="414.51" x2="429.79" y2="414.51"/><line class="cls-8" x1="13.44" y1="414.51" x2="27.79" y2="414.51"/></g><g id="Character"><rect class="cls-5" x="142.19" y="279.84" width="15.28" height="132.8"/><rect class="cls-5" x="36.31" y="327.93" width="60.9" height="9.34"/><rect class="cls-5" x="33.23" y="295.69" width="9.34" height="37.37"/><path class="cls-7" d="M46.49,333.22a8.55,8.55,0,0,1-8.55,8.55H37.1a8.56,8.56,0,1,1,9.13-10.66A8.83,8.83,0,0,1,46.49,333.22Z" transform="translate(-0.03 0)"/><path class="cls-7" d="M47.12,301.45A8.57,8.57,0,0,1,38.56,310h-.84a8.49,8.49,0,1,1,9.4-8.55Z" transform="translate(-0.03 0)"/><rect class="cls-5" x="50.44" y="281.28" width="14.14" height="5.44" transform="translate(-127.8 61.21) rotate(-28.3)"/><path class="cls-7" d="M67.09,283.56,61,286.86,57,279.59l6.14-3.31a4.12,4.12,0,0,1,5.59,1.63l0,.09h0A4.15,4.15,0,0,1,67.09,283.56Z" transform="translate(-0.03 0)"/><polygon class="cls-5" points="40.19 252.72 39.75 278.09 34.32 278 34.75 252.64 40.19 252.72"/><path class="cls-7" d="M41.69,251.2l-.11,7-8.26-.2.11-7a4.13,4.13,0,0,1,4.2-4.06h0a4.11,4.11,0,0,1,4.06,4.18Z" transform="translate(-0.03 0)"/><polygon class="cls-5" points="60.51 261.93 48.58 284.31 43.78 281.76 55.7 259.38 60.51 261.93"/><path class="cls-7" d="M62.54,261.24l-3.27,6.15L52,263.52l3.26-6.16a4.14,4.14,0,0,1,5.58-1.71h0A4.13,4.13,0,0,1,62.54,261.24Z" transform="translate(-0.03 0)"/><polygon class="cls-5" points="20.91 261.83 32.73 284.27 27.92 286.81 16.1 264.37 20.91 261.83"/><path class="cls-7" d="M32,278.1a5.32,5.32,0,1,0-4.36,6.13h0A5.32,5.32,0,0,0,32,278.1Z" transform="translate(-0.03 0)"/><circle class="cls-7" cx="37.2" cy="273.48" r="5.32"/><path class="cls-7" d="M54.59,276.55A5.32,5.32,0,1,0,48.52,281h0a5.31,5.31,0,0,0,6.06-4.44Z" transform="translate(-0.03 0)"/><path class="cls-7" d="M21.49,259.78l3.26,6.16-7.3,3.87-3.26-6.17a4.12,4.12,0,0,1,1.7-5.57h0A4.14,4.14,0,0,1,21.49,259.78Z" transform="translate(-0.03 0)"/><path class="cls-7" d="M53.57,288.37a15,15,0,0,1-15,15h0a11.8,11.8,0,0,1-1.47-.06,15,15,0,1,1,16-18.69A15.35,15.35,0,0,1,53.57,288.37Z" transform="translate(-0.03 0)"/><path class="cls-7" d="M53.57,288.37a15,15,0,0,1-15,15h0a11.8,11.8,0,0,1-1.47-.06,15,15,0,0,1,14.55-18.76,10.2,10.2,0,0,1,1.47.07A15.83,15.83,0,0,1,53.57,288.37Z" transform="translate(-0.03 0)"/><circle class="cls-7" cx="109.39" cy="328.88" r="20.24" transform="translate(-235.79 360.46) rotate(-76.83)"/><circle class="cls-5" cx="109.35" cy="328.86" r="9.81"/><path class="cls-7" d="M105.91,414.51h89.8l1.29-6.08a9.4,9.4,0,0,0-7.18-11.14c-12.73-2.86-40.29-3.89-40.29-3.89-6.64.21-25.12,1-37.85,3.9a9.39,9.39,0,0,0-7.1,11.13Z" transform="translate(-0.03 0)"/><path class="cls-6" d="M172.42,394.88c-11.5-1.06-22.86-1.48-22.86-1.48-4.18.13-13.06.5-22.24,1.48,2.68,9.15,11.76,15.89,22.55,15.89S169.74,404,172.42,394.88Z" transform="translate(-0.03 0)"/><rect class="cls-5" x="217.38" y="319.23" width="9.34" height="60.9" transform="translate(-191.03 318.52) rotate(-53.27)"/><rect class="cls-5" x="215.61" y="376.88" width="37.37" height="9.34" transform="translate(-211.65 341.14) rotate(-53.27)"/><path class="cls-7" d="M238.69,361.32a8.57,8.57,0,0,1,12-1.74h0l.65.53a8.56,8.56,0,1,1-13.69,3.08A9,9,0,0,1,238.69,361.32Z" transform="translate(-0.03 0)"/><path class="cls-7" d="M219.16,385.25A8.56,8.56,0,0,1,231,382.93c.23.15.45.32.67.49a8.56,8.56,0,1,1-13.52,3.75A8.66,8.66,0,0,1,219.16,385.25Z" transform="translate(-0.03 0)"/><rect class="cls-5" x="198.04" y="386.88" width="5.44" height="14.14" transform="translate(-210.96 555.23) rotate(-84.39)"/><path class="cls-7" d="M192.6,389l6.94.68-.81,8.22-6.94-.68a4.13,4.13,0,0,1-3.71-4.51h0A4.14,4.14,0,0,1,192.6,389Z" transform="translate(-0.03 0)"/><path class="cls-7" d="M206.5,392.5a15,15,0,0,1,20.81-4.1l0,0c.41.28.8.57,1.18.88a15,15,0,1,1-23.7,6.57A14.74,14.74,0,0,1,206.5,392.5Z" transform="translate(-0.03 0)"/><polygon class="cls-5" points="190.31 408.08 208.91 394.17 211.9 398.16 193.3 412.06 190.31 408.08"/><path class="cls-7" d="M188.41,407.87l5.11-3.87,4.54,6L193,413.83a3.78,3.78,0,0,1-5.29-.76h0A3.76,3.76,0,0,1,188.41,407.87Z" transform="translate(-0.03 0)"/><path class="cls-7" d="M214.36,398.46a5.32,5.32,0,1,0-6.38,4h0A5.33,5.33,0,0,0,214.36,398.46Z" transform="translate(-0.03 0)"/><polygon class="cls-5" points="224.19 422.06 226.95 402.98 231.04 403.56 228.28 422.64 224.19 422.06"/><path class="cls-7" d="M223,423.07l.75-5.25,6.21.89-.75,5.24a3.14,3.14,0,0,1-3.55,2.67h0A3.15,3.15,0,0,1,223,423.07Z" transform="translate(-0.03 0)"/><path class="cls-7" d="M232.67,402.31a4.41,4.41,0,1,0-1.34,6.1A4.4,4.4,0,0,0,232.67,402.31Z" transform="translate(-0.03 0)"/><polygon class="cls-5" points="205.78 419.52 218.18 399.88 222.39 402.52 210 422.17 205.78 419.52"/><path class="cls-7" d="M203.94,420l3.39-5.4,6.41,4-3.4,5.41a3.79,3.79,0,0,1-5.21,1.19h0A3.78,3.78,0,0,1,203.94,420Z" transform="translate(-0.03 0)"/><path class="cls-7" d="M224.82,401.94a5.31,5.31,0,1,0-4.51,6h0A5.3,5.3,0,0,0,224.82,401.94Z" transform="translate(-0.03 0)"/><circle class="cls-7" cx="190.89" cy="329.23" r="20.24" transform="translate(-147.85 155.72) rotate(-32.77)"/><circle class="cls-5" cx="190.87" cy="329.24" r="9.81"/><circle class="cls-6" cx="149.83" cy="256.61" r="32.51"/><path class="cls-7" d="M196.34,278.26a59.48,59.48,0,1,0-93,0Z" transform="translate(-0.03 0)"/><rect class="cls-6" x="103.77" y="218.72" width="90.62" height="42.68" rx="8.18" ry="8.18"/><path class="cls-13" d="M113.6,238.33a14.49,14.49,0,0,1,27-.75" transform="translate(-0.03 0)"/><path class="cls-13" d="M158.39,238.33a14.49,14.49,0,0,1,27-.75" transform="translate(-0.03 0)"/><path class="cls-7" d="M142,248.22a8.21,8.21,0,0,0,16.29,0Z" transform="translate(-0.03 0)"/><path class="cls-5" d="M226.82,251.6h0a6.21,6.21,0,0,1-6.22-6.22h0V231.23a6.21,6.21,0,0,1,6.21-6.23h0a6.21,6.21,0,0,1,6.23,6.21h0v14.15a6.21,6.21,0,0,1-6.21,6.23Z" transform="translate(-0.03 0)"/><path class="cls-5" d="M71.2,251.6h0A6.21,6.21,0,0,1,65,245.39h0V231.23A6.21,6.21,0,0,1,71.18,225h0a6.21,6.21,0,0,1,6.22,6.22h0v14.15a6.21,6.21,0,0,1-6.21,6.23Z" transform="translate(-0.03 0)"/><path class="cls-14" d="M91.14,187.75a49,49,0,0,0-8.42,27.54v10.28" transform="translate(-0.03 0)"/><path class="cls-15" d="M209.22,187.79A49.23,49.23,0,0,0,168.34,166H132a49.21,49.21,0,0,0-40.85,21.72" transform="translate(-0.03 0)"/><path class="cls-14" d="M217.6,225.57V215.29a49,49,0,0,0-8.38-27.5" transform="translate(-0.03 0)"/><rect class="cls-7" x="70.57" y="214.5" width="25.82" height="46.37" rx="8.74" ry="8.74"/><rect class="cls-10" x="82.17" y="214.5" width="2.63" height="46.37"/><rect class="cls-7" x="202.29" y="214.5" width="25.82" height="46.37" rx="8.74" ry="8.74"/><rect class="cls-10" x="213.89" y="214.5" width="2.63" height="46.37"/><path class="cls-6" d="M150.07,210.29h0A27.28,27.28,0,0,0,173,197.83l5.64-8.73a59.45,59.45,0,0,0-58.29.45l8.49,10.54A27.3,27.3,0,0,0,150.07,210.29Z" transform="translate(-0.03 0)"/><path class="cls-3" d="M151.48,265.72a1,1,0,1,0-1,1A1,1,0,0,0,151.48,265.72Z" transform="translate(-0.03 0)"/><path class="cls-3" d="M151.48,269.08a1,1,0,1,0-1,1A1,1,0,0,0,151.48,269.08Z" transform="translate(-0.03 0)"/><path class="cls-3" d="M147.67,268.56a1,1,0,1,0-.86-.46A1,1,0,0,0,147.67,268.56Z" transform="translate(-0.03 0)"/><path class="cls-3" d="M153.68,268.56a1,1,0,0,0,0-2,1,1,0,0,0-.52.16,1,1,0,1,0,0,2A1,1,0,0,0,153.68,268.56Z" transform="translate(-0.03 0)"/><path class="cls-7" d="M189.82,303.24c-12.73-2.87-40.29-3.9-40.29-3.9-6.64.21-25.12,1-37.85,3.91a9.39,9.39,0,0,0-7.1,11.13l11.79,55.16a12,12,0,0,0,11.7,9.46h45.45a12,12,0,0,0,11.7-9.46L197,314.38A9.4,9.4,0,0,0,189.82,303.24Z" transform="translate(-0.03 0)"/><path class="cls-6" d="M184,302.18c-13.81-2.06-34.46-2.84-34.46-2.84a280.44,280.44,0,0,0-30.22,2.5L132.7,379H169Z" transform="translate(-0.03 0)"/><rect class="cls-7" x="131.15" y="316.11" width="38.48" height="27.16" rx="8.18" ry="8.18"/><rect class="cls-7" x="137.7" y="327.3" width="6.23" height="6.23"/><rect class="cls-7" x="147.27" y="327.3" width="6.23" height="6.23"/><rect class="cls-7" x="156.85" y="327.3" width="6.23" height="6.23"/></g><g id="Device"><path class="cls-7" d="M62.88,361.56H173.72a5,5,0,0,1,5,5v62.27H57.88V366.56A5,5,0,0,1,62.88,361.56Z" transform="translate(-0.03 0)"/><path class="cls-5" d="M178.72,383.94c-15.18,3.85-30.76,13.65-59.79,27.45-28,13.32-50.92,13.09-61,12.06v5.38H178.72Z" transform="translate(-0.03 0)"/><rect class="cls-7" x="57.85" y="425.1" width="120.84" height="3.74"/><path class="cls-7" d="M124.53,395.2A6.23,6.23,0,1,1,118.3,389a6.23,6.23,0,0,1,6.23,6.23Z" transform="translate(-0.03 0)"/></g></svg>