<svg xmlns="http://www.w3.org/2000/svg" xmlns:xlink="http://www.w3.org/1999/xlink" viewBox="0 0 163.02 49.97"><defs><style>.cls-1{isolation:isolate;}.cls-2{opacity:0.25;mix-blend-mode:multiply;fill:url(#radial-gradient);}.cls-3{fill:url(#linear-gradient);}.cls-4{fill:url(#linear-gradient-2);}.cls-5{fill:#29292e;}</style><radialGradient id="radial-gradient" cx="16.58" cy="3593.93" r="27.82" gradientTransform="translate(56.62 -135.23) scale(1.46 0.1)" gradientUnits="userSpaceOnUse"><stop offset="0" stop-color="#787878"/><stop offset="0.07" stop-color="#8f8f8f"/><stop offset="0.18" stop-color="#b2b2b2"/><stop offset="0.31" stop-color="#cecece"/><stop offset="0.44" stop-color="#e4e4e4"/><stop offset="0.59" stop-color="#f3f3f3"/><stop offset="0.76" stop-color="#fcfcfc"/><stop offset="1" stop-color="#fff"/></radialGradient><linearGradient id="linear-gradient" x1="40.21" y1="198.62" x2="83.51" y2="198.62" gradientUnits="userSpaceOnUse"><stop offset="0.51" stop-color="#006be0"/><stop offset="1" stop-color="#5a00ff"/></linearGradient><linearGradient id="linear-gradient-2" x1="49.67" y1="198.65" x2="72.81" y2="198.65" gradientUnits="userSpaceOnUse"><stop offset="0" stop-color="#ff15c5"/><stop offset="0.17" stop-color="#fa14c7"/><stop offset="0.36" stop-color="#ec12cf"/><stop offset="0.57" stop-color="#d40dda"/><stop offset="0.79" stop-color="#b407eb"/><stop offset="1" stop-color="#8c00ff"/></linearGradient></defs><title>logo</title><g class="cls-1"><g id="Design"><g id="_Group_" data-name="&lt;Group&gt;"><path id="_Path_" data-name="&lt;Path&gt;" class="cls-2" d="M121.49,224.16c0,1.54-18.19,2.79-40.64,2.79s-40.64-1.25-40.64-2.79,18.2-2.78,40.64-2.78S121.49,222.63,121.49,224.16Z" transform="translate(-40.21 -176.97)"/><g id="_Group_2" data-name="&lt;Group&gt;"><g id="_Clip_Group_" data-name="&lt;Clip Group&gt;"><path id="_Compound_Clipping_Path_" data-name="&lt;Compound Clipping Path&gt;" class="cls-3" d="M49.45,186.21a16.86,16.86,0,0,1,26.91,19.63l-.76,1.48.43,1.6,1.41,5.28-5.28-1.41-1.6-.43-1.48.76a16.86,16.86,0,0,1-19.63-26.91m-3-3a21.15,21.15,0,0,0,24.64,33.76l12.46,3.34-3.34-12.46a21.15,21.15,0,0,0-33.76-24.64Z" transform="translate(-40.21 -176.97)"/></g><g id="_Clip_Group_2" data-name="&lt;Clip Group&gt;"><path id="_Compound_Clipping_Path_2" data-name="&lt;Compound Clipping Path&gt;" class="cls-4" d="M66.93,193a7.87,7.87,0,0,1-9.16,12.56l-.69-.36-.75.2-2.46.66.66-2.46.2-.75-.36-.69A7.87,7.87,0,0,1,66.93,193m2.57-2.57a11.3,11.3,0,0,0-18,13.16l-1.79,6.66,6.66-1.78a11.3,11.3,0,0,0,13.17-18Z" transform="translate(-40.21 -176.97)"/></g></g></g><path class="cls-5" d="M107.94,201.57q1.55,1.23,1.07,4l-2.63,14.9h-6.06l.18-3a12.08,12.08,0,0,1-3,2.63,6.82,6.82,0,0,1-3.46.84,3.69,3.69,0,0,1-3.89-2.46q-.9-2.47,0-7.83.95-5.52,3.47-7.91t8.1-2.39Q106.38,200.35,107.94,201.57Zm-6.19,6.05a.85.85,0,0,0-.26-.84,2.23,2.23,0,0,0-1.31-.26,2.45,2.45,0,0,0-2,.64,5.63,5.63,0,0,0-.86,2.43l-.29,1.82a6,6,0,0,0-.13,2.16c.11.29.44.43,1,.43s1.67-.63,3-1.89Z" transform="translate(-40.21 -176.97)"/><path class="cls-5" d="M109.89,214.84c2.78.3,4.7.44,5.77.44a8.87,8.87,0,0,0,1.84-.12c.31-.09.47-.25.5-.5a.6.6,0,0,0-.26-.64,9.34,9.34,0,0,0-1.28-.67l-.18-.08-1.86-.87-.77-.37c-.19-.09-.45-.24-.78-.44a4.7,4.7,0,0,1-.75-.52l-.68-.64a2.11,2.11,0,0,1-.56-.79l-.39-1a2.3,2.3,0,0,1-.16-1.18c0-.41.08-.87.11-1.41a6.08,6.08,0,0,1,2.74-4.47q2.14-1.26,6.83-1.26a31.26,31.26,0,0,1,6.75.8l-1.53,5.26a43.36,43.36,0,0,0-5.3-.51,6.58,6.58,0,0,0-1.66.13.65.65,0,0,0-.49.56.54.54,0,0,0,.24.59,6.74,6.74,0,0,0,1.22.58l1.79.77a9.65,9.65,0,0,1,3.67,2.41,4.48,4.48,0,0,1,.75,3.76,6.75,6.75,0,0,1-2.72,4.73q-2.15,1.4-7.47,1.4a33.8,33.8,0,0,1-6.83-.76Z" transform="translate(-40.21 -176.97)"/><path class="cls-5" d="M135.82,214.92a4,4,0,0,1,.76-4.68l2.85-2.77c.51-.44.77-.78.77-1s-.39-.37-1.17-.37-1.78.09-3.36.26l-2.48,14.13H126.4l4.74-27.39H138l-1.53,8.55a18,18,0,0,1,6.57-1.39,4.24,4.24,0,0,1,3.69,1.51,4,4,0,0,1,.62,3.44,5.84,5.84,0,0,1-2,3.19l-2.92,2.41a1.72,1.72,0,0,0-.68,1A2.13,2.13,0,0,0,142,213l3.55,7.49H138Z" transform="translate(-40.21 -176.97)"/><path class="cls-5" d="M162.73,200.71l0,2.71q3.36-3.22,6.72-3.22a4.2,4.2,0,0,1,2.79.75,3,3,0,0,1,.94,2.21,9.49,9.49,0,0,1,6.42-3,4.46,4.46,0,0,1,2.78.73,2.59,2.59,0,0,1,.95,2,17.29,17.29,0,0,1-.26,3.14l-2.52,14.35h-6.9l2.12-12.05a2.23,2.23,0,0,0,0-1c-.08-.17-.27-.25-.59-.25a5.21,5.21,0,0,0-2.7,1.46l-2.08,11.83h-6.9l2.12-12.05a2.23,2.23,0,0,0,0-1c-.08-.17-.27-.25-.59-.25a5.27,5.27,0,0,0-2.77,1.53l-2.05,11.76h-6.79l3.36-19.76Z" transform="translate(-40.21 -176.97)"/><path class="cls-5" d="M199.94,200.88a4.63,4.63,0,0,1,2.26,1.37,5,5,0,0,1,.92,1.93,4.51,4.51,0,0,1,0,2.19,7.4,7.4,0,0,1-3,5.13q-2.37,1.63-7,1.63H191.5c-.12.73,0,1.2.28,1.42a5.47,5.47,0,0,0,2.5.33c.7,0,2.68-.18,5.91-.55l-.4,5.7a43.1,43.1,0,0,1-7.74.88,17.44,17.44,0,0,1-3.38-.28,6.48,6.48,0,0,1-2.37-1,3.43,3.43,0,0,1-1.42-1.88,12.54,12.54,0,0,1-.5-3,17.36,17.36,0,0,1,.41-4.4q1-5.68,3.5-7.85t7.67-2.15A12.66,12.66,0,0,1,199.94,200.88Zm-6.9,8.41a4.58,4.58,0,0,0,2.48-.58,2.35,2.35,0,0,0,1.1-1.61,1,1,0,0,0-.19-.91,1.67,1.67,0,0,0-1.24-.33,2.62,2.62,0,0,0-2.15.77,6.15,6.15,0,0,0-1,2.66Z" transform="translate(-40.21 -176.97)"/></g></g></svg>