<?xml version="1.0" encoding="utf-8"?>
<!-- Generator: Adobe Illustrator 22.1.0, SVG Export Plug-In . SVG Version: 6.00 Build 0)  -->
<svg version="1.1" id="Layer_1" xmlns="http://www.w3.org/2000/svg" xmlns:xlink="http://www.w3.org/1999/xlink" x="0px" y="0px"
	 viewBox="0 0 163 50" style="enable-background:new 0 0 163 50;" xml:space="preserve">
<style type="text/css">
	.st0{fill:url(#_Compound_Clipping_Path__1_);}
	.st1{fill:url(#_Compound_Clipping_Path_2_1_);}
	.st2{fill:#F8F8F8;}
</style>
<title>logo</title>
<g>
	<g id="Design">
		<g id="_Group_">
			<g id="_Group_2">
				<g id="_Clip_Group_">
					
						<linearGradient id="_Compound_Clipping_Path__1_" gradientUnits="userSpaceOnUse" x1="40.2505" y1="-146.66" x2="83.55" y2="-146.66" gradientTransform="matrix(1 0 0 -1 -40.21 -124.97)">
						<stop  offset="0.51" style="stop-color:#006BE0"/>
						<stop  offset="1" style="stop-color:#5A00FF"/>
					</linearGradient>
					<path id="_Compound_Clipping_Path_" class="st0" d="M9.2,9.2c6.6-6.6,17.3-6.6,23.8,0c5.2,5.2,6.4,13.1,3.1,19.6l-0.8,1.5
						l0.4,1.6l1.4,5.3L32,35.8l-1.6-0.4l-1.5,0.8c-8.3,4.2-18.4,1-22.7-7.3C2.8,22.3,4.1,14.4,9.2,9.2 M6.2,6.2
						C-2,14.5-2,27.9,6.2,36.2c6.5,6.5,16.5,8.1,24.6,3.8l12.5,3.3L40,30.9c5.4-10.4,1.3-23.1-9.1-28.5C22.7-1.8,12.7-0.3,6.2,6.2
						L6.2,6.2z"/>
				</g>
				<g id="_Clip_Group_2">
					
						<linearGradient id="_Compound_Clipping_Path_2_1_" gradientUnits="userSpaceOnUse" x1="49.67" y1="-146.7235" x2="72.81" y2="-146.7235" gradientTransform="matrix(1 0 0 -1 -40.21 -124.97)">
						<stop  offset="0" style="stop-color:#FF15C5"/>
						<stop  offset="0.17" style="stop-color:#FA14C7"/>
						<stop  offset="0.36" style="stop-color:#EC12CF"/>
						<stop  offset="0.57" style="stop-color:#D40DDA"/>
						<stop  offset="0.79" style="stop-color:#B407EB"/>
						<stop  offset="1" style="stop-color:#8C00FF"/>
					</linearGradient>
					<path id="_Compound_Clipping_Path_2" class="st1" d="M26.7,16c3.1,3.1,3.1,8.1,0,11.1c-2.4,2.4-6.1,3-9.1,1.4l-0.7-0.4
						l-0.8,0.2l-2.5,0.7l0.7-2.5l0.2-0.8l-0.4-0.7c-2-3.9-0.4-8.6,3.4-10.6C20.6,13,24.3,13.6,26.7,16 M29.3,13.5
						c-4.5-4.4-11.6-4.3-16,0.2c-3.4,3.5-4.2,8.7-2,13l-1.8,6.7l6.7-1.8c5.6,2.8,12.4,0.6,15.2-5C33.5,22.2,32.7,17,29.3,13.5
						L29.3,13.5z"/>
				</g>
			</g>
		</g>
		<path class="st2" d="M67.7,24.6c1,0.8,1.4,2.2,1.1,4l-2.6,14.9h-6.1l0.2-3c-0.8,1-1.9,1.9-3,2.6C56.2,43.7,55,44,53.8,44
			c-1.7,0.2-3.3-0.8-3.9-2.5c-0.6-1.6-0.6-4.3,0-7.8c0.6-3.7,1.8-6.3,3.5-7.9c1.7-1.6,4.4-2.4,8.1-2.4
			C64.6,23.4,66.7,23.8,67.7,24.6z M61.5,30.7c0.1-0.3,0-0.6-0.3-0.8c-0.4-0.2-0.9-0.3-1.3-0.3c-0.7-0.1-1.5,0.1-2,0.6
			c-0.5,0.7-0.8,1.6-0.9,2.4l-0.3,1.8c-0.2,0.7-0.2,1.4-0.1,2.2c0.1,0.3,0.4,0.4,1,0.4s1.7-0.6,3-1.9L61.5,30.7z"/>
		<path class="st2" d="M69.7,37.9c2.8,0.3,4.7,0.4,5.8,0.4c0.6,0,1.2,0,1.8-0.1c0.3-0.1,0.5-0.3,0.5-0.5c0.1-0.2,0-0.5-0.3-0.6
			c-0.4-0.3-0.8-0.5-1.3-0.7l-0.2-0.1l-1.9-0.9l-0.8-0.4c-0.2-0.1-0.4-0.2-0.8-0.4c-0.3-0.1-0.5-0.3-0.8-0.5l-0.7-0.6
			c-0.2-0.2-0.4-0.5-0.6-0.8l-0.4-1c-0.2-0.4-0.2-0.8-0.2-1.2c0-0.4,0.1-0.9,0.1-1.4c0.2-1.8,1.2-3.5,2.7-4.5
			c1.4-0.8,3.7-1.3,6.8-1.3c2.3,0,4.5,0.3,6.8,0.8L85,29.4c-1.8-0.3-3.5-0.4-5.3-0.5c-0.6,0-1.1,0-1.7,0.1c-0.3,0.1-0.5,0.3-0.5,0.6
			c-0.1,0.2,0,0.5,0.2,0.6c0.4,0.2,0.8,0.4,1.2,0.6l1.8,0.8c1.4,0.5,2.6,1.3,3.7,2.4c0.8,1.1,1.1,2.5,0.8,3.8
			c-0.2,1.9-1.2,3.6-2.7,4.7c-1.4,0.9-3.9,1.4-7.5,1.4c-2.3,0-4.6-0.3-6.8-0.8L69.7,37.9z"/>
		<path class="st2" d="M95.6,37.9c-0.8-1.6-0.5-3.5,0.8-4.7l2.9-2.8c0.5-0.4,0.8-0.8,0.8-1s-0.4-0.4-1.2-0.4s-1.8,0.1-3.4,0.3
			L93,43.5h-6.8l4.7-27.4h6.9l-1.5,8.6c2.1-0.9,4.3-1.3,6.6-1.4c1.4-0.1,2.8,0.4,3.7,1.5c0.7,1,1,2.3,0.6,3.4c-0.3,1.3-1,2.4-2,3.2
			l-2.9,2.4c-0.3,0.2-0.6,0.6-0.7,1c0,0.4,0.1,0.8,0.2,1.2l3.6,7.5h-7.6L95.6,37.9z"/>
		<path class="st2" d="M122.5,23.7v2.7c2.2-2.1,4.5-3.2,6.7-3.2c1-0.1,2,0.2,2.8,0.8c0.6,0.6,0.9,1.4,0.9,2.2c1.7-1.8,4-2.9,6.4-3
			c1-0.1,2,0.2,2.8,0.7c0.6,0.5,0.9,1.2,1,2c0,1.1-0.1,2.1-0.3,3.1l-2.5,14.4h-6.9l2.1-12.1c0.1-0.3,0.1-0.7,0-1
			c-0.1-0.2-0.3-0.3-0.6-0.3c-1,0.2-2,0.7-2.7,1.5l-2.1,11.8h-6.9l2.1-12.1c0.1-0.3,0.1-0.7,0-1c-0.1-0.2-0.3-0.3-0.6-0.3
			c-1.1,0.2-2,0.7-2.8,1.5L120,43.4h-6.8l3.4-19.8L122.5,23.7z"/>
		<path class="st2" d="M159.7,23.9c0.9,0.2,1.7,0.7,2.3,1.4c0.4,0.6,0.8,1.2,0.9,1.9c0.2,0.7,0.2,1.5,0,2.2c-0.2,2.1-1.3,3.9-3,5.1
			c-1.6,1.1-3.9,1.6-7,1.6h-1.6c-0.1,0.7,0,1.2,0.3,1.4c0.8,0.3,1.7,0.4,2.5,0.3c0.7,0,2.7-0.2,5.9-0.6l-0.4,5.7
			c-2.5,0.5-5.1,0.8-7.7,0.9c-1.1,0-2.3-0.1-3.4-0.3c-0.8-0.2-1.7-0.5-2.4-1c-0.7-0.4-1.2-1.1-1.4-1.9c-0.3-1-0.5-2-0.5-3
			c-0.1-1.5,0.1-3,0.4-4.4c0.7-3.8,1.8-6.4,3.5-7.9c1.7-1.4,4.2-2.2,7.7-2.1C157.1,23.3,158.4,23.5,159.7,23.9z M152.8,32.3
			c0.9,0,1.7-0.2,2.5-0.6c0.6-0.4,1-0.9,1.1-1.6c0.1-0.3,0-0.7-0.2-0.9c-0.4-0.3-0.8-0.4-1.2-0.3c-0.8-0.1-1.6,0.2-2.1,0.8
			c-0.5,0.8-0.9,1.7-1,2.7H152.8z"/>
	</g>
</g>
</svg>
